<svg width="184" height="72" viewBox="0 0 184 72" fill="none" xmlns="http://www.w3.org/2000/svg">
  <path d="M20.3 44.1C12.3 42.3 5.8 37.6 5.8 31.9C5.8 26.8 11.1 22.5 18 20.4C19.5 13.9 29.7 9.5 42 10.4C48.4 5.3 60.7 3.9 71.2 7.3C80.9 2.5 96.2 3.1 104.6 8.8C115.7 4.6 130.8 7.1 136.5 14.3C150.2 14 161.5 19.7 162.6 27.4C171.4 30 177.1 35.6 175.7 41.5C174.4 46.9 167.4 50.5 158.8 51.1C154.9 58.5 141 61.5 128.4 57.6C119.5 64.4 101.8 65.2 91.6 59.3C80.9 64 65.5 62.3 58.9 55.9C46.7 58.6 32.5 55.7 27.7 49.4C25.1 48.2 22.6 46.4 20.3 44.1Z" fill="white" stroke="#6F1837" stroke-width="2.3"/>
  <text x="92" y="39" text-anchor="middle" fill="#6F1837" font-family="Arial, Helvetica, sans-serif" font-size="25" font-weight="900">Häagen-Dazs</text>
</svg>
